<svg xmlns="http://www.w3.org/2000/svg" xmlns:xlink="http://www.w3.org/1999/xlink" zoomAndPan="magnify" preserveAspectRatio="xMidYMid meet" version="1.0" viewBox="-37.5 -37.5 450 450"><defs><clipPath id="49a674f3f4"><path d="M 3.382812 3.839844 L 371.632812 3.839844 L 371.632812 371.339844 L 3.382812 371.339844 Z M 3.382812 3.839844 " clip-rule="nonzero"/></clipPath><clipPath id="272d628d6a"><path d="M 15.0625 15.496094 L 360 15.496094 L 360 359.746094 L 15.0625 359.746094 Z M 15.0625 15.496094 " clip-rule="nonzero"/></clipPath><clipPath id="6ba401ed54"><path d="M 126 157 L 246 157 L 246 277 L 126 277 Z M 126 157 " clip-rule="nonzero"/></clipPath><clipPath id="587e3d0d4f"><path d="M 186.019531 126.371094 L 276.703125 217.058594 L 186.019531 307.742188 L 95.332031 217.058594 Z M 186.019531 126.371094 " clip-rule="nonzero"/></clipPath><clipPath id="f8071eb4d5"><path d="M 186.019531 126.371094 L 276.703125 217.058594 L 186.019531 307.742188 L 95.332031 217.058594 Z M 186.019531 126.371094 " clip-rule="nonzero"/></clipPath><clipPath id="81eebc2c98"><path d="M 57 146 L 158 146 L 158 247 L 57 247 Z M 57 146 " clip-rule="nonzero"/></clipPath><clipPath id="bae79bb358"><path d="M 107.597656 119.871094 L 183.964844 196.238281 L 107.597656 272.605469 L 31.230469 196.238281 Z M 107.597656 119.871094 " clip-rule="nonzero"/></clipPath><clipPath id="d13d6256fa"><path d="M 107.597656 119.871094 L 183.964844 196.238281 L 107.597656 272.605469 L 31.230469 196.238281 Z M 107.597656 119.871094 " clip-rule="nonzero"/></clipPath><clipPath id="e91094c154"><path d="M 126 176 L 246 176 L 246 296 L 126 296 Z M 126 176 " clip-rule="nonzero"/></clipPath><clipPath id="0050f6cdea"><path d="M 186.019531 145.496094 L 276.703125 236.183594 L 186.019531 326.871094 L 95.332031 236.183594 Z M 186.019531 145.496094 " clip-rule="nonzero"/></clipPath><clipPath id="6f12d0a945"><path d="M 186.019531 145.496094 L 276.703125 236.183594 L 186.019531 326.871094 L 95.332031 236.183594 Z M 186.019531 145.496094 " clip-rule="nonzero"/></clipPath><clipPath id="e6a874bd2e"><path d="M 119 169 L 253 169 L 253 303 L 119 303 Z M 119 169 " clip-rule="nonzero"/></clipPath><clipPath id="41122488ff"><path d="M 186.011719 134.753906 L 287.304688 236.046875 L 186.011719 337.339844 L 84.71875 236.046875 Z M 186.011719 134.753906 " clip-rule="nonzero"/></clipPath><clipPath id="397861b961"><path d="M 186.011719 134.753906 L 287.304688 236.046875 L 186.011719 337.339844 L 84.71875 236.046875 Z M 186.011719 134.753906 " clip-rule="nonzero"/></clipPath><clipPath id="94b52e91d9"><path d="M 128 178 L 244 178 L 244 294 L 128 294 Z M 128 178 " clip-rule="nonzero"/></clipPath><clipPath id="4f862f9a35"><path d="M 186.015625 148.460938 L 273.519531 235.964844 L 186.015625 323.472656 L 98.511719 235.964844 Z M 186.015625 148.460938 " clip-rule="nonzero"/></clipPath><clipPath id="c85b74dd33"><path d="M 186.015625 148.460938 L 273.519531 235.964844 L 186.015625 323.472656 L 98.511719 235.964844 Z M 186.015625 148.460938 " clip-rule="nonzero"/></clipPath><clipPath id="ee87053222"><path d="M 147 88 L 225 88 L 225 167 L 147 167 Z M 147 88 " clip-rule="nonzero"/></clipPath><clipPath id="62a5b827b6"><path d="M 186.015625 68.726562 L 244.878906 127.59375 L 186.015625 186.457031 L 127.148438 127.59375 Z M 186.015625 68.726562 " clip-rule="nonzero"/></clipPath><clipPath id="ec80c71bf8"><path d="M 186.015625 68.726562 L 244.878906 127.59375 L 186.015625 186.457031 L 127.148438 127.59375 Z M 186.015625 68.726562 " clip-rule="nonzero"/></clipPath><clipPath id="80c7d4d4ad"><path d="M 156 98 L 216 98 L 216 158 L 156 158 Z M 156 98 " clip-rule="nonzero"/></clipPath><clipPath id="f5a4d8e90e"><path d="M 186.015625 82.640625 L 231.09375 127.71875 L 186.015625 172.796875 L 140.9375 127.71875 Z M 186.015625 82.640625 " clip-rule="nonzero"/></clipPath><clipPath id="5e8c7e6df1"><path d="M 186.015625 82.640625 L 231.09375 127.71875 L 186.015625 172.796875 L 140.9375 127.71875 Z M 186.015625 82.640625 " clip-rule="nonzero"/></clipPath><clipPath id="3b719a00be"><path d="M 45 150 L 152 150 L 152 257 L 45 257 Z M 45 150 " clip-rule="nonzero"/></clipPath><clipPath id="abf8af5955"><path d="M 98.351562 123.109375 L 178.820312 203.582031 L 98.351562 284.050781 L 17.882812 203.582031 Z M 98.351562 123.109375 " clip-rule="nonzero"/></clipPath><clipPath id="403b2e9222"><path d="M 98.351562 123.109375 L 178.820312 203.582031 L 98.351562 284.050781 L 17.882812 203.582031 Z M 98.351562 123.109375 " clip-rule="nonzero"/></clipPath><clipPath id="35f66b870e"><path d="M 39 144 L 158 144 L 158 263 L 39 263 Z M 39 144 " clip-rule="nonzero"/></clipPath><clipPath id="2b4a3cf9f5"><path d="M 98.351562 113.578125 L 188.1875 203.414062 L 98.351562 293.25 L 8.515625 203.414062 Z M 98.351562 113.578125 " clip-rule="nonzero"/></clipPath><clipPath id="76a81b2495"><path d="M 98.351562 113.578125 L 188.1875 203.414062 L 98.351562 293.25 L 8.515625 203.414062 Z M 98.351562 113.578125 " clip-rule="nonzero"/></clipPath><clipPath id="60b6cdf5dd"><path d="M 47 152 L 150 152 L 150 255 L 47 255 Z M 47 152 " clip-rule="nonzero"/></clipPath><clipPath id="001dad9db5"><path d="M 98.351562 125.738281 L 176.269531 203.65625 L 98.351562 281.570312 L 20.4375 203.65625 Z M 98.351562 125.738281 " clip-rule="nonzero"/></clipPath><clipPath id="d0455318a3"><path d="M 98.351562 125.738281 L 176.269531 203.65625 L 98.351562 281.570312 L 20.4375 203.65625 Z M 98.351562 125.738281 " clip-rule="nonzero"/></clipPath><clipPath id="a091bcaf7d"><path d="M 63 72 L 133 72 L 133 142 L 63 142 Z M 63 72 " clip-rule="nonzero"/></clipPath><clipPath id="51b3d63a7b"><path d="M 98.351562 55.015625 L 150.722656 107.382812 L 98.351562 159.753906 L 45.984375 107.382812 Z M 98.351562 55.015625 " clip-rule="nonzero"/></clipPath><clipPath id="6412dc3544"><path d="M 98.351562 55.015625 L 150.722656 107.382812 L 98.351562 159.753906 L 45.984375 107.382812 Z M 98.351562 55.015625 " clip-rule="nonzero"/></clipPath><clipPath id="5335e0efdf"><path d="M 72 81 L 125 81 L 125 134 L 72 134 Z M 72 81 " clip-rule="nonzero"/></clipPath><clipPath id="71f5060c02"><path d="M 98.351562 67.359375 L 138.371094 107.382812 L 98.351562 147.402344 L 58.328125 107.382812 Z M 98.351562 67.359375 " clip-rule="nonzero"/></clipPath><clipPath id="3228c21681"><path d="M 98.351562 67.359375 L 138.371094 107.382812 L 98.351562 147.402344 L 58.328125 107.382812 Z M 98.351562 67.359375 " clip-rule="nonzero"/></clipPath><clipPath id="1afc2ca4d0"><path d="M 223 150 L 330 150 L 330 257 L 223 257 Z M 223 150 " clip-rule="nonzero"/></clipPath><clipPath id="c2c553a31a"><path d="M 276.644531 123.109375 L 357.113281 203.582031 L 276.644531 284.050781 L 196.175781 203.582031 Z M 276.644531 123.109375 " clip-rule="nonzero"/></clipPath><clipPath id="22e7fa8210"><path d="M 276.644531 123.109375 L 357.113281 203.582031 L 276.644531 284.050781 L 196.175781 203.582031 Z M 276.644531 123.109375 " clip-rule="nonzero"/></clipPath><clipPath id="7368f497e6"><path d="M 217 144 L 336 144 L 336 263 L 217 263 Z M 217 144 " clip-rule="nonzero"/></clipPath><clipPath id="e55c7e095a"><path d="M 276.644531 113.578125 L 366.480469 203.414062 L 276.644531 293.25 L 186.808594 203.414062 Z M 276.644531 113.578125 " clip-rule="nonzero"/></clipPath><clipPath id="6cabb82d23"><path d="M 276.644531 113.578125 L 366.480469 203.414062 L 276.644531 293.25 L 186.808594 203.414062 Z M 276.644531 113.578125 " clip-rule="nonzero"/></clipPath><clipPath id="5750880612"><path d="M 225 152 L 328 152 L 328 255 L 225 255 Z M 225 152 " clip-rule="nonzero"/></clipPath><clipPath id="d5c589001a"><path d="M 276.644531 125.738281 L 354.558594 203.65625 L 276.644531 281.570312 L 198.730469 203.65625 Z M 276.644531 125.738281 " clip-rule="nonzero"/></clipPath><clipPath id="cfd28768b8"><path d="M 276.644531 125.738281 L 354.558594 203.65625 L 276.644531 281.570312 L 198.730469 203.65625 Z M 276.644531 125.738281 " clip-rule="nonzero"/></clipPath><clipPath id="e5ffbbb35a"><path d="M 242 72 L 312 72 L 312 142 L 242 142 Z M 242 72 " clip-rule="nonzero"/></clipPath><clipPath id="5c32526281"><path d="M 276.644531 55.015625 L 329.015625 107.382812 L 276.644531 159.753906 L 224.277344 107.382812 Z M 276.644531 55.015625 " clip-rule="nonzero"/></clipPath><clipPath id="cad1fed06f"><path d="M 276.644531 55.015625 L 329.015625 107.382812 L 276.644531 159.753906 L 224.277344 107.382812 Z M 276.644531 55.015625 " clip-rule="nonzero"/></clipPath><clipPath id="c0173503aa"><path d="M 250 81 L 303 81 L 303 134 L 250 134 Z M 250 81 " clip-rule="nonzero"/></clipPath><clipPath id="056106911e"><path d="M 276.644531 67.359375 L 316.664062 107.382812 L 276.644531 147.402344 L 236.621094 107.382812 Z M 276.644531 67.359375 " clip-rule="nonzero"/></clipPath><clipPath id="868237ef8f"><path d="M 276.644531 67.359375 L 316.664062 107.382812 L 276.644531 147.402344 L 236.621094 107.382812 Z M 276.644531 67.359375 " clip-rule="nonzero"/></clipPath><clipPath id="c445a73385"><path d="M 126 176 L 246 176 L 246 296 L 126 296 Z M 126 176 " clip-rule="nonzero"/></clipPath><clipPath id="20b9ebbb8a"><path d="M 186.015625 145.5 L 276.738281 236.222656 L 186.015625 326.945312 L 95.292969 236.222656 Z M 186.015625 145.5 " clip-rule="nonzero"/></clipPath><clipPath id="f9180c4661"><path d="M 186.015625 145.5 L 276.738281 236.222656 L 186.015625 326.945312 L 95.292969 236.222656 Z M 186.015625 145.5 " clip-rule="nonzero"/></clipPath><clipPath id="9101b7c1e1"><path d="M 119 169 L 253 169 L 253 303 L 119 303 Z M 119 169 " clip-rule="nonzero"/></clipPath><clipPath id="b30a4a7719"><path d="M 186.015625 134.75 L 287.300781 236.035156 L 186.015625 337.316406 L 84.734375 236.035156 Z M 186.015625 134.75 " clip-rule="nonzero"/></clipPath><clipPath id="80b061cf36"><path d="M 186.015625 134.75 L 287.300781 236.035156 L 186.015625 337.316406 L 84.734375 236.035156 Z M 186.015625 134.75 " clip-rule="nonzero"/></clipPath><clipPath id="262075e1cb"><path d="M 128 178 L 244 178 L 244 294 L 128 294 Z M 128 178 " clip-rule="nonzero"/></clipPath><clipPath id="ccf4efcecd"><path d="M 186.015625 148.460938 L 273.859375 236.304688 L 186.015625 324.148438 L 98.175781 236.304688 Z M 186.015625 148.460938 " clip-rule="nonzero"/></clipPath><clipPath id="3f2280a65d"><path d="M 186.015625 148.460938 L 273.859375 236.304688 L 186.015625 324.148438 L 98.175781 236.304688 Z M 186.015625 148.460938 " clip-rule="nonzero"/></clipPath><clipPath id="84d15325d9"><path d="M 147 88 L 225 88 L 225 167 L 147 167 Z M 147 88 " clip-rule="nonzero"/></clipPath><clipPath id="b2e7d02d89"><path d="M 186.015625 68.726562 L 245.058594 127.765625 L 186.015625 186.808594 L 126.972656 127.765625 Z M 186.015625 68.726562 " clip-rule="nonzero"/></clipPath><clipPath id="c9ae512b3f"><path d="M 186.015625 68.726562 L 245.058594 127.765625 L 186.015625 186.808594 L 126.972656 127.765625 Z M 186.015625 68.726562 " clip-rule="nonzero"/></clipPath><clipPath id="ffc3b39e98"><path d="M 156 98 L 216 98 L 216 158 L 156 158 Z M 156 98 " clip-rule="nonzero"/></clipPath><clipPath id="ca552dfa3c"><path d="M 186.015625 82.644531 L 231.136719 127.765625 L 186.015625 172.886719 L 140.894531 127.765625 Z M 186.015625 82.644531 " clip-rule="nonzero"/></clipPath><clipPath id="f1ae90cfaf"><path d="M 186.015625 82.644531 L 231.136719 127.765625 L 186.015625 172.886719 L 140.894531 127.765625 Z M 186.015625 82.644531 " clip-rule="nonzero"/></clipPath></defs><rect x="-37.5" width="450" fill="#ffffff" y="-37.499999" height="449.999989" fill-opacity="1"/><rect x="-37.5" width="450" fill="#ffffff" y="-37.499999" height="449.999989" fill-opacity="1"/><g clip-path="url(#49a674f3f4)"><path fill="#0cc0df" d="M 3.382812 187.496094 C 3.382812 3.871094 3.382812 3.871094 187.496094 3.871094 C 371.609375 3.871094 371.609375 3.871094 371.609375 187.496094 C 371.609375 371.125 371.609375 371.125 187.496094 371.125 C 3.382812 371.125 3.382812 371.125 3.382812 187.496094 Z M 3.382812 187.496094 " fill-opacity="1" fill-rule="nonzero"/></g><g clip-path="url(#272d628d6a)"><path fill="#545454" d="M 15.0625 187.496094 C 15.0625 15.515625 15.0625 15.515625 187.5 15.515625 C 359.933594 15.515625 359.933594 15.515625 359.933594 187.496094 C 359.933594 359.476562 359.933594 359.476562 187.5 359.476562 C 15.0625 359.476562 15.0625 359.476562 15.0625 187.496094 Z M 15.0625 187.496094 " fill-opacity="1" fill-rule="nonzero"/></g><g clip-path="url(#6ba401ed54)"><g clip-path="url(#587e3d0d4f)"><g clip-path="url(#f8071eb4d5)"><path fill="#545454" d="M 140.703125 171.683594 C 159.734375 152.652344 212.300781 152.652344 231.332031 171.683594 C 250.363281 190.714844 250.363281 243.28125 231.332031 262.3125 C 212.300781 281.34375 159.734375 281.34375 140.703125 262.3125 C 121.671875 243.28125 121.671875 190.714844 140.703125 171.683594 Z M 140.703125 171.683594 " fill-opacity="1" fill-rule="nonzero"/></g></g></g><g clip-path="url(#81eebc2c98)"><g clip-path="url(#bae79bb358)"><g clip-path="url(#d13d6256fa)"><path fill="#545454" d="M 69.320312 158.148438 C 85.394531 142.070312 129.800781 142.070312 145.875 158.148438 C 161.953125 174.226562 161.953125 218.628906 145.875 234.707031 C 129.800781 250.785156 85.394531 250.785156 69.320312 234.707031 C 53.242188 218.628906 53.242188 174.226562 69.320312 158.148438 Z M 69.320312 158.148438 " fill-opacity="1" fill-rule="nonzero"/></g></g></g><g clip-path="url(#e91094c154)"><g clip-path="url(#0050f6cdea)"><g clip-path="url(#6f12d0a945)"><path fill="#545454" d="M 140.703125 190.8125 C 159.734375 171.78125 212.300781 171.78125 231.332031 190.8125 C 250.363281 209.84375 250.363281 262.40625 231.332031 281.441406 C 212.300781 300.472656 159.734375 300.472656 140.703125 281.441406 C 121.671875 262.40625 121.671875 209.84375 140.703125 190.8125 Z M 140.703125 190.8125 " fill-opacity="1" fill-rule="nonzero"/></g></g></g><g clip-path="url(#e6a874bd2e)"><g clip-path="url(#41122488ff)"><g clip-path="url(#397861b961)"><path fill="#0cc0df" d="M 135.328125 185.4375 C 156.617188 164.148438 215.410156 164.148438 236.695312 185.4375 C 257.984375 206.722656 257.984375 265.515625 236.695312 286.804688 C 215.410156 308.09375 156.617188 308.09375 135.328125 286.804688 C 114.042969 265.515625 114.042969 206.722656 135.328125 185.4375 Z M 135.328125 185.4375 " fill-opacity="1" fill-rule="nonzero"/></g></g></g><g clip-path="url(#94b52e91d9)"><g clip-path="url(#4f862f9a35)"><g clip-path="url(#c85b74dd33)"><path fill="#545454" d="M 142.183594 192.292969 C 160.59375 173.882812 211.4375 173.882812 229.847656 192.292969 C 248.257812 210.703125 248.257812 261.546875 229.847656 279.953125 C 211.4375 298.363281 160.59375 298.363281 142.183594 279.953125 C 123.777344 261.546875 123.777344 210.703125 142.183594 192.292969 Z M 142.183594 192.292969 " fill-opacity="1" fill-rule="nonzero"/></g></g></g><g clip-path="url(#ee87053222)"><g clip-path="url(#62a5b827b6)"><g clip-path="url(#ec80c71bf8)"><path fill="#0cc0df" d="M 156.542969 98.195312 C 168.921875 85.820312 203.105469 85.820312 215.484375 98.195312 C 227.863281 110.574219 227.863281 144.761719 215.484375 157.136719 C 203.105469 169.515625 168.921875 169.515625 156.542969 157.136719 C 144.164062 144.761719 144.164062 110.574219 156.542969 98.195312 Z M 156.542969 98.195312 " fill-opacity="1" fill-rule="nonzero"/></g></g></g><g clip-path="url(#80c7d4d4ad)"><g clip-path="url(#f5a4d8e90e)"><g clip-path="url(#5e8c7e6df1)"><path fill="#545454" d="M 163.503906 105.15625 C 172.957031 95.699219 199.074219 95.699219 208.53125 105.15625 C 217.988281 114.613281 217.988281 140.726562 208.53125 150.183594 C 199.074219 159.640625 172.957031 159.640625 163.503906 150.183594 C 154.046875 140.726562 154.046875 114.613281 163.503906 105.15625 Z M 163.503906 105.15625 " fill-opacity="1" fill-rule="nonzero"/></g></g></g><g clip-path="url(#3b719a00be)"><g clip-path="url(#abf8af5955)"><g clip-path="url(#403b2e9222)"><path fill="#545454" d="M 58.160156 163.300781 C 75.039062 146.421875 121.664062 146.421875 138.542969 163.300781 C 155.421875 180.183594 155.421875 226.804688 138.542969 243.683594 C 121.664062 260.566406 75.039062 260.566406 58.160156 243.683594 C 41.28125 226.804688 41.28125 180.183594 58.160156 163.300781 Z M 58.160156 163.300781 " fill-opacity="1" fill-rule="nonzero"/></g></g></g><g clip-path="url(#35f66b870e)"><g clip-path="url(#2b4a3cf9f5)"><g clip-path="url(#76a81b2495)"><path fill="#0cc0df" d="M 53.394531 158.535156 C 72.277344 139.65625 124.429688 139.65625 143.3125 158.535156 C 162.195312 177.417969 162.195312 229.570312 143.3125 248.453125 C 124.429688 267.335938 72.277344 267.335938 53.394531 248.453125 C 34.511719 229.570312 34.511719 177.417969 53.394531 158.535156 Z M 53.394531 158.535156 " fill-opacity="1" fill-rule="nonzero"/></g></g></g><g clip-path="url(#60b6cdf5dd)"><g clip-path="url(#001dad9db5)"><g clip-path="url(#d0455318a3)"><path fill="#545454" d="M 59.476562 164.617188 C 75.804688 148.289062 120.902344 148.289062 137.230469 164.617188 C 153.558594 180.945312 153.558594 226.042969 137.230469 242.371094 C 120.902344 258.699219 75.804688 258.699219 59.476562 242.371094 C 43.148438 226.042969 43.148438 180.945312 59.476562 164.617188 Z M 59.476562 164.617188 " fill-opacity="1" fill-rule="nonzero"/></g></g></g><g clip-path="url(#a091bcaf7d)"><g clip-path="url(#51b3d63a7b)"><g clip-path="url(#6412dc3544)"><path fill="#0cc0df" d="M 72.210938 81.15625 C 83.191406 70.175781 113.515625 70.175781 124.492188 81.15625 C 135.472656 92.136719 135.472656 122.457031 124.492188 133.4375 C 113.515625 144.417969 83.191406 144.417969 72.210938 133.4375 C 61.230469 122.457031 61.230469 92.136719 72.210938 81.15625 Z M 72.210938 81.15625 " fill-opacity="1" fill-rule="nonzero"/></g></g></g><g clip-path="url(#5335e0efdf)"><g clip-path="url(#71f5060c02)"><g clip-path="url(#3228c21681)"><path fill="#545454" d="M 78.382812 87.328125 C 86.769531 78.941406 109.929688 78.941406 118.316406 87.328125 C 126.703125 95.714844 126.703125 118.875 118.316406 127.261719 C 109.929688 135.648438 86.769531 135.648438 78.382812 127.261719 C 69.996094 118.875 69.996094 95.714844 78.382812 87.328125 Z M 78.382812 87.328125 " fill-opacity="1" fill-rule="nonzero"/></g></g></g><g clip-path="url(#1afc2ca4d0)"><g clip-path="url(#c2c553a31a)"><g clip-path="url(#22e7fa8210)"><path fill="#545454" d="M 236.453125 163.300781 C 253.332031 146.421875 299.957031 146.421875 316.835938 163.300781 C 333.714844 180.183594 333.714844 226.804688 316.835938 243.683594 C 299.957031 260.566406 253.332031 260.566406 236.453125 243.683594 C 219.574219 226.804688 219.574219 180.183594 236.453125 163.300781 Z M 236.453125 163.300781 " fill-opacity="1" fill-rule="nonzero"/></g></g></g><g clip-path="url(#7368f497e6)"><g clip-path="url(#e55c7e095a)"><g clip-path="url(#6cabb82d23)"><path fill="#0cc0df" d="M 231.6875 158.535156 C 250.570312 139.65625 302.722656 139.65625 321.605469 158.535156 C 340.484375 177.417969 340.484375 229.570312 321.605469 248.453125 C 302.722656 267.335938 250.570312 267.335938 231.6875 248.453125 C 212.804688 229.570312 212.804688 177.417969 231.6875 158.535156 Z M 231.6875 158.535156 " fill-opacity="1" fill-rule="nonzero"/></g></g></g><g clip-path="url(#5750880612)"><g clip-path="url(#d5c589001a)"><g clip-path="url(#cfd28768b8)"><path fill="#545454" d="M 237.769531 164.617188 C 254.097656 148.289062 299.195312 148.289062 315.523438 164.617188 C 331.851562 180.945312 331.851562 226.042969 315.523438 242.371094 C 299.195312 258.699219 254.097656 258.699219 237.769531 242.371094 C 221.4375 226.042969 221.4375 180.945312 237.769531 164.617188 Z M 237.769531 164.617188 " fill-opacity="1" fill-rule="nonzero"/></g></g></g><g clip-path="url(#e5ffbbb35a)"><g clip-path="url(#5c32526281)"><g clip-path="url(#cad1fed06f)"><path fill="#0cc0df" d="M 250.503906 81.15625 C 261.484375 70.175781 291.808594 70.175781 302.785156 81.15625 C 313.765625 92.136719 313.765625 122.457031 302.785156 133.4375 C 291.808594 144.417969 261.484375 144.417969 250.503906 133.4375 C 239.523438 122.457031 239.523438 92.136719 250.503906 81.15625 Z M 250.503906 81.15625 " fill-opacity="1" fill-rule="nonzero"/></g></g></g><g clip-path="url(#c0173503aa)"><g clip-path="url(#056106911e)"><g clip-path="url(#868237ef8f)"><path fill="#545454" d="M 256.675781 87.328125 C 265.0625 78.941406 288.222656 78.941406 296.609375 87.328125 C 304.996094 95.714844 304.996094 118.875 296.609375 127.261719 C 288.222656 135.648438 265.0625 135.648438 256.675781 127.261719 C 248.289062 118.875 248.289062 95.714844 256.675781 87.328125 Z M 256.675781 87.328125 " fill-opacity="1" fill-rule="nonzero"/></g></g></g><g clip-path="url(#c445a73385)"><g clip-path="url(#20b9ebbb8a)"><g clip-path="url(#f9180c4661)"><path fill="#545454" d="M 140.703125 190.8125 C 159.734375 171.78125 212.296875 171.78125 231.328125 190.8125 C 250.359375 209.84375 250.359375 262.40625 231.328125 281.4375 C 212.296875 300.46875 159.734375 300.46875 140.703125 281.4375 C 121.671875 262.40625 121.671875 209.84375 140.703125 190.8125 Z M 140.703125 190.8125 " fill-opacity="1" fill-rule="nonzero"/></g></g></g><g clip-path="url(#9101b7c1e1)"><g clip-path="url(#b30a4a7719)"><g clip-path="url(#80b061cf36)"><path fill="#0cc0df" d="M 135.332031 185.4375 C 156.617188 164.148438 215.414062 164.148438 236.703125 185.4375 C 257.992188 206.726562 257.992188 265.523438 236.703125 286.8125 C 215.414062 308.101562 156.617188 308.101562 135.332031 286.8125 C 114.042969 265.523438 114.042969 206.726562 135.332031 185.4375 Z M 135.332031 185.4375 " fill-opacity="1" fill-rule="nonzero"/></g></g></g><g clip-path="url(#262075e1cb)"><g clip-path="url(#ccf4efcecd)"><g clip-path="url(#3f2280a65d)"><path fill="#545454" d="M 142.183594 192.292969 C 160.59375 173.882812 211.4375 173.882812 229.847656 192.292969 C 248.257812 210.703125 248.257812 261.546875 229.847656 279.957031 C 211.4375 298.367188 160.59375 298.367188 142.183594 279.957031 C 123.777344 261.546875 123.777344 210.703125 142.183594 192.292969 Z M 142.183594 192.292969 " fill-opacity="1" fill-rule="nonzero"/></g></g></g><g clip-path="url(#84d15325d9)"><g clip-path="url(#b2e7d02d89)"><g clip-path="url(#c9ae512b3f)"><path fill="#0cc0df" d="M 156.542969 98.195312 C 168.921875 85.820312 203.109375 85.820312 215.488281 98.195312 C 227.867188 110.574219 227.867188 144.761719 215.488281 157.140625 C 203.109375 169.519531 168.921875 169.519531 156.542969 157.140625 C 144.164062 144.761719 144.164062 110.574219 156.542969 98.195312 Z M 156.542969 98.195312 " fill-opacity="1" fill-rule="nonzero"/></g></g></g><g clip-path="url(#ffc3b39e98)"><g clip-path="url(#ca552dfa3c)"><g clip-path="url(#f1ae90cfaf)"><path fill="#545454" d="M 163.503906 105.15625 C 172.957031 95.699219 199.070312 95.699219 208.527344 105.15625 C 217.980469 114.609375 217.980469 140.722656 208.527344 150.179688 C 199.070312 159.632812 172.957031 159.632812 163.503906 150.179688 C 154.046875 140.722656 154.046875 114.609375 163.503906 105.15625 Z M 163.503906 105.15625 " fill-opacity="1" fill-rule="nonzero"/></g></g></g></svg>